<svg width="285" height="56" viewBox="0 0 285 56" fill="none" xmlns="http://www.w3.org/2000/svg">
<path d="M194.761 48.1816L194.744 48.4219V48.1816H194.761ZM20.3965 5.98926L20.6963 5.85059L30.0381 1.53711H30.0391L30.1201 1.5L163.241 1.5V1.63965L164.818 1.5C164.824 1.50075 164.834 1.50265 164.848 1.50586L165.182 1.58301L165.517 1.50586C165.529 1.50312 165.539 1.50183 165.546 1.50098C165.549 1.50058 165.552 1.50011 165.554 1.5C165.556 1.49989 165.557 1.5 165.557 1.5C165.561 1.50001 165.584 1.5002 165.634 1.51562C165.663 1.52595 165.69 1.53782 165.716 1.55176L165.774 1.58398L165.835 1.61035L179.814 7.69922L180.201 7.86719L180.604 7.8125L194.649 7.8125V7.81641C251.522 8.1162 276.76 23.0932 283.227 27.7344H283.228C283.389 27.8504 283.461 27.9444 283.487 27.9893C283.489 27.9914 283.49 27.9932 283.491 27.9951C283.484 28.008 283.475 28.0272 283.459 28.0488C283.42 28.0996 283.35 28.1729 283.231 28.2578L283.229 28.2598C278.323 31.7805 262.651 41.222 230.621 45.7266C220.37 47.169 208.441 48.1043 194.649 48.1777V48.1816H180.42L180.139 48.3018L165.667 54.4658H165.666C165.602 54.4926 165.57 54.4941 165.559 54.4941C165.551 54.4941 165.548 54.4933 165.547 54.4932H165.545L165.159 54.3984L164.811 54.498L163.243 54.3613V54.5L30.1191 54.5L30.0703 54.4775L30.0674 54.4766L20.6943 50.1494L20.3945 50.0107L14.4102 50.0107L14.0469 50.9893C13.5468 52.3367 13.0355 53.2915 12.5625 53.8818C12.074 54.4916 11.8074 54.5 11.793 54.5H6.74023C6.71566 54.5 6.33776 54.4658 5.70508 53.5176L5.7041 53.5166C4.8101 52.178 3.9247 49.7615 3.19922 46.417C2.57258 43.5281 2.08686 40.0542 1.79883 36.1982L1.6875 34.5225C1.57317 32.5485 1.5081 30.4953 1.50195 28.3809V28.3604C1.50012 28.2491 1.5 28.1357 1.5 28.0059V28C1.5 25.7548 1.56509 23.5694 1.68555 21.4795C1.87952 18.1362 2.22004 15.0438 2.67383 12.3203C3.27257 8.7326 4.05814 5.85584 4.92969 3.91602C5.36742 2.94186 5.79196 2.28445 6.16309 1.89258C6.53356 1.50139 6.72417 1.5 6.73828 1.5L11.791 1.5C11.8055 1.5 12.072 1.50845 12.5605 2.11816C13.0335 2.70848 13.5448 3.66332 14.0449 5.01074L14.4082 5.98926L20.3965 5.98926ZM194.744 7.8125V7.57227L194.761 7.81152L194.744 7.8125Z" stroke="#E53935" stroke-width="3"/>
<path d="M25.8788 30.14V33.5H11.8988V19.5H15.2388V29.26C15.2388 29.5 15.3254 29.7067 15.4988 29.88C15.6721 30.0533 15.8854 30.14 16.1388 30.14H25.8788ZM34.2173 23.44C34.964 23.44 35.664 23.5733 36.3173 23.84C36.9707 24.1067 37.544 24.4667 38.0373 24.92C38.5307 25.3733 38.9173 25.9067 39.1973 26.52C39.4773 27.1333 39.6173 27.7867 39.6173 28.48V33.5H36.2773C36.2773 33.4067 36.2373 33.3333 36.1573 33.28C36.0907 33.2267 36.0107 33.2133 35.9173 33.24C35.3973 33.4133 34.8307 33.5 34.2173 33.5H31.7373C30.9773 33.5 30.244 33.36 29.5373 33.08C28.844 32.7867 28.2373 32.3733 27.7173 31.84C27.2507 31.3467 26.8973 30.8 26.6573 30.2C26.4173 29.6 26.3107 28.9733 26.3373 28.32C26.364 27.64 26.524 27.0067 26.8173 26.42C27.1107 25.82 27.504 25.3 27.9973 24.86C28.504 24.42 29.084 24.0733 29.7373 23.82C30.404 23.5667 31.104 23.44 31.8373 23.44H34.2173ZM35.7773 29.64C36.1373 29.28 36.304 28.8667 36.2773 28.4C36.264 28.16 36.1973 27.9333 36.0773 27.72C35.9707 27.5067 35.8173 27.3267 35.6173 27.18C35.4307 27.02 35.2107 26.8933 34.9573 26.8C34.704 26.7067 34.4373 26.66 34.1573 26.66H31.7373C31.4707 26.66 31.2107 26.7067 30.9573 26.8C30.7173 26.88 30.4973 27.0067 30.2973 27.18C30.1107 27.34 29.9573 27.54 29.8373 27.78C29.7307 28.0067 29.6773 28.26 29.6773 28.54C29.6907 28.78 29.7507 29.0067 29.8573 29.22C29.9773 29.4333 30.1307 29.62 30.3173 29.78C30.5173 29.9267 30.744 30.0467 30.9973 30.14C31.264 30.2333 31.5373 30.28 31.8173 30.28H34.2173C34.524 30.28 34.8107 30.2267 35.0773 30.12C35.3573 30.0133 35.5907 29.8533 35.7773 29.64ZM54.4844 23.44V27.34C54.4844 28.1933 54.311 28.9933 53.9644 29.74C53.6177 30.4867 53.1444 31.14 52.5444 31.7C51.9444 32.26 51.2377 32.7 50.4244 33.02C49.6244 33.34 48.7644 33.5 47.8444 33.5C46.9244 33.5 46.0577 33.34 45.2444 33.02C44.4444 32.7 43.7444 32.26 43.1444 31.7C42.5444 31.14 42.071 30.4867 41.7244 29.74C41.3777 28.9933 41.2044 28.1933 41.2044 27.34V23.44H44.5444V27.34C44.5444 27.74 44.631 28.12 44.8044 28.48C44.9777 28.84 45.211 29.1533 45.5044 29.42C45.811 29.6867 46.1644 29.9 46.5644 30.06C46.9644 30.2067 47.391 30.28 47.8444 30.28C48.2977 30.28 48.7244 30.2067 49.1244 30.06C49.5244 29.9 49.871 29.6867 50.1644 29.42C50.471 29.1533 50.711 28.84 50.8844 28.48C51.0577 28.12 51.1444 27.74 51.1444 27.34V23.44H54.4844ZM62.5905 23.44C63.5105 23.44 64.3705 23.6 65.1705 23.92C65.9838 24.24 66.6905 24.68 67.2905 25.24C67.8905 25.8 68.3638 26.4533 68.7105 27.2C69.0571 27.9467 69.2305 28.7467 69.2305 29.6V33.5H65.8905V29.6C65.8905 29.2 65.8038 28.82 65.6305 28.46C65.4571 28.1 65.2171 27.7867 64.9105 27.52C64.6171 27.2533 64.2705 27.0467 63.8705 26.9C63.4705 26.74 63.0438 26.66 62.5905 26.66C62.1371 26.66 61.7105 26.74 61.3105 26.9C60.9105 27.0467 60.5571 27.2533 60.2505 27.52C59.9571 27.7867 59.7238 28.1 59.5505 28.46C59.3771 28.82 59.2905 29.2 59.2905 29.6V33.5H55.9505V29.6C55.9505 28.7467 56.1238 27.9467 56.4705 27.2C56.8171 26.4533 57.2905 25.8 57.8905 25.24C58.4905 24.68 59.1905 24.24 59.9905 23.92C60.8038 23.6 61.6705 23.44 62.5905 23.44ZM75.9766 26.66C75.6966 26.66 75.4299 26.7067 75.1766 26.8C74.9232 26.8933 74.7032 27.0267 74.5166 27.2C74.3299 27.36 74.1832 27.5533 74.0766 27.78C73.9699 27.9933 73.9166 28.2267 73.9166 28.48C73.9166 28.9867 74.1166 29.4133 74.5166 29.76C74.9166 30.1067 75.4032 30.28 75.9766 30.28H83.0166V33.5H75.9766C75.2299 33.5 74.5299 33.3667 73.8766 33.1C73.2232 32.8333 72.6499 32.4733 72.1566 32.02C71.6632 31.5667 71.2766 31.04 70.9966 30.44C70.7166 29.8267 70.5766 29.1733 70.5766 28.48C70.5766 27.7867 70.7166 27.1333 70.9966 26.52C71.2766 25.9067 71.6632 25.3733 72.1566 24.92C72.6499 24.4667 73.2232 24.1067 73.8766 23.84C74.5299 23.5733 75.2299 23.44 75.9766 23.44H83.0166V26.66H75.9766ZM91.4703 23.44C92.3636 23.4667 93.197 23.6533 93.9703 24C94.757 24.3333 95.4436 24.7867 96.0303 25.36C96.617 25.92 97.077 26.5733 97.4103 27.32C97.757 28.0667 97.9303 28.86 97.9303 29.7V33.5H94.5903V29.6C94.5903 29.1733 94.497 28.78 94.3103 28.42C94.1236 28.06 93.877 27.7533 93.5703 27.5C93.2636 27.2333 92.917 27.0267 92.5303 26.88C92.1436 26.7333 91.7436 26.66 91.3303 26.66H91.1903C90.7503 26.6733 90.337 26.76 89.9503 26.92C89.5636 27.08 89.2236 27.3 88.9303 27.58C88.637 27.8467 88.4036 28.1667 88.2303 28.54C88.0703 28.9 87.9903 29.28 87.9903 29.68V33.5H84.6503V19.5H87.9903V23.64C87.9903 23.7067 88.0103 23.76 88.0503 23.8C88.1036 23.84 88.1436 23.8733 88.1703 23.9C88.317 24.0067 88.4703 24.0267 88.6303 23.96C89.5103 23.6133 90.4103 23.44 91.3303 23.44H91.4703ZM115.232 22.84C114.725 22.84 114.245 22.94 113.792 23.14C113.352 23.3267 112.965 23.5867 112.632 23.92C112.312 24.24 112.052 24.6267 111.852 25.08C111.665 25.52 111.572 25.9933 111.572 26.5C111.572 27.0067 111.665 27.48 111.852 27.92C112.052 28.36 112.312 28.7467 112.632 29.08C112.965 29.4133 113.352 29.6733 113.792 29.86C114.245 30.0467 114.725 30.14 115.232 30.14H122.752V33.5H115.232C114.272 33.5 113.365 33.32 112.512 32.96C111.659 32.5867 110.912 32.0867 110.272 31.46C109.645 30.82 109.145 30.0733 108.772 29.22C108.412 28.3667 108.232 27.46 108.232 26.5C108.232 25.54 108.412 24.6333 108.772 23.78C109.145 22.9267 109.645 22.1867 110.272 21.56C110.912 20.92 111.659 20.42 112.512 20.06C113.365 19.6867 114.272 19.5 115.232 19.5H122.752V22.84H115.232ZM131.112 23.44C131.859 23.44 132.559 23.5733 133.212 23.84C133.865 24.1067 134.439 24.4667 134.932 24.92C135.425 25.3733 135.812 25.9067 136.092 26.52C136.372 27.1333 136.512 27.7867 136.512 28.48V33.5H133.172C133.172 33.4067 133.132 33.3333 133.052 33.28C132.985 33.2267 132.905 33.2133 132.812 33.24C132.292 33.4133 131.725 33.5 131.112 33.5H128.632C127.872 33.5 127.139 33.36 126.432 33.08C125.739 32.7867 125.132 32.3733 124.612 31.84C124.145 31.3467 123.792 30.8 123.552 30.2C123.312 29.6 123.205 28.9733 123.232 28.32C123.259 27.64 123.419 27.0067 123.712 26.42C124.005 25.82 124.399 25.3 124.892 24.86C125.399 24.42 125.979 24.0733 126.632 23.82C127.299 23.5667 127.999 23.44 128.732 23.44H131.112ZM132.672 29.64C133.032 29.28 133.199 28.8667 133.172 28.4C133.159 28.16 133.092 27.9333 132.972 27.72C132.865 27.5067 132.712 27.3267 132.512 27.18C132.325 27.02 132.105 26.8933 131.852 26.8C131.599 26.7067 131.332 26.66 131.052 26.66H128.632C128.365 26.66 128.105 26.7067 127.852 26.8C127.612 26.88 127.392 27.0067 127.192 27.18C127.005 27.34 126.852 27.54 126.732 27.78C126.625 28.0067 126.572 28.26 126.572 28.54C126.585 28.78 126.645 29.0067 126.752 29.22C126.872 29.4333 127.025 29.62 127.212 29.78C127.412 29.9267 127.639 30.0467 127.892 30.14C128.159 30.2333 128.432 30.28 128.712 30.28H131.112C131.419 30.28 131.705 30.2267 131.972 30.12C132.252 30.0133 132.485 29.8533 132.672 29.64ZM138.479 33.5V19.5H141.819V33.5H138.479ZM148.945 26.66C148.665 26.66 148.399 26.7067 148.145 26.8C147.892 26.8933 147.672 27.0267 147.485 27.2C147.299 27.36 147.152 27.5533 147.045 27.78C146.939 27.9933 146.885 28.2267 146.885 28.48C146.885 28.9867 147.085 29.4133 147.485 29.76C147.885 30.1067 148.372 30.28 148.945 30.28H155.985V33.5H148.945C148.199 33.5 147.499 33.3667 146.845 33.1C146.192 32.8333 145.619 32.4733 145.125 32.02C144.632 31.5667 144.245 31.04 143.965 30.44C143.685 29.8267 143.545 29.1733 143.545 28.48C143.545 27.7867 143.685 27.1333 143.965 26.52C144.245 25.9067 144.632 25.3733 145.125 24.92C145.619 24.4667 146.192 24.1067 146.845 23.84C147.499 23.5733 148.199 23.44 148.945 23.44H155.985V26.66H148.945ZM170.539 23.44V27.34C170.539 28.1933 170.366 28.9933 170.019 29.74C169.672 30.4867 169.199 31.14 168.599 31.7C167.999 32.26 167.292 32.7 166.479 33.02C165.679 33.34 164.819 33.5 163.899 33.5C162.979 33.5 162.112 33.34 161.299 33.02C160.499 32.7 159.799 32.26 159.199 31.7C158.599 31.14 158.126 30.4867 157.779 29.74C157.432 28.9933 157.259 28.1933 157.259 27.34V23.44H160.599V27.34C160.599 27.74 160.686 28.12 160.859 28.48C161.032 28.84 161.266 29.1533 161.559 29.42C161.866 29.6867 162.219 29.9 162.619 30.06C163.019 30.2067 163.446 30.28 163.899 30.28C164.352 30.28 164.779 30.2067 165.179 30.06C165.579 29.9 165.926 29.6867 166.219 29.42C166.526 29.1533 166.766 28.84 166.939 28.48C167.112 28.12 167.199 27.74 167.199 27.34V23.44H170.539ZM172.385 33.5V19.5H175.725V33.5H172.385ZM185.292 23.44C186.038 23.44 186.738 23.5733 187.392 23.84C188.045 24.1067 188.618 24.4667 189.112 24.92C189.605 25.3733 189.992 25.9067 190.272 26.52C190.552 27.1333 190.692 27.7867 190.692 28.48V33.5H187.352C187.352 33.4067 187.312 33.3333 187.232 33.28C187.165 33.2267 187.085 33.2133 186.992 33.24C186.472 33.4133 185.905 33.5 185.292 33.5H182.812C182.052 33.5 181.318 33.36 180.612 33.08C179.918 32.7867 179.312 32.3733 178.792 31.84C178.325 31.3467 177.972 30.8 177.732 30.2C177.492 29.6 177.385 28.9733 177.412 28.32C177.438 27.64 177.598 27.0067 177.892 26.42C178.185 25.82 178.578 25.3 179.072 24.86C179.578 24.42 180.158 24.0733 180.812 23.82C181.478 23.5667 182.178 23.44 182.912 23.44H185.292ZM186.852 29.64C187.212 29.28 187.378 28.8667 187.352 28.4C187.338 28.16 187.272 27.9333 187.152 27.72C187.045 27.5067 186.892 27.3267 186.692 27.18C186.505 27.02 186.285 26.8933 186.032 26.8C185.778 26.7067 185.512 26.66 185.232 26.66H182.812C182.545 26.66 182.285 26.7067 182.032 26.8C181.792 26.88 181.572 27.0067 181.372 27.18C181.185 27.34 181.032 27.54 180.912 27.78C180.805 28.0067 180.752 28.26 180.752 28.54C180.765 28.78 180.825 29.0067 180.932 29.22C181.052 29.4333 181.205 29.62 181.392 29.78C181.592 29.9267 181.818 30.0467 182.072 30.14C182.338 30.2333 182.612 30.28 182.892 30.28H185.292C185.598 30.28 185.885 30.2267 186.152 30.12C186.432 30.0133 186.665 29.8533 186.852 29.64ZM203.713 23.44V26.66H199.593C199.46 26.66 199.346 26.6933 199.253 26.76C199.173 26.8267 199.133 26.9067 199.133 27V33.5H195.773V27C195.773 26.9067 195.726 26.8267 195.633 26.76C195.553 26.6933 195.446 26.66 195.313 26.66H191.193V23.44H195.313C195.446 23.44 195.553 23.4067 195.633 23.34C195.726 23.2733 195.773 23.1933 195.773 23.1V20.36H199.133V23.1C199.133 23.1933 199.173 23.2733 199.253 23.34C199.346 23.4067 199.46 23.44 199.593 23.44H203.713ZM212.089 23.44C212.836 23.44 213.536 23.5733 214.189 23.84C214.843 24.1067 215.416 24.4667 215.909 24.92C216.403 25.3733 216.789 25.9067 217.069 26.52C217.349 27.1333 217.489 27.7867 217.489 28.48C217.489 29.1733 217.349 29.8267 217.069 30.44C216.789 31.04 216.403 31.5667 215.909 32.02C215.416 32.4733 214.843 32.8333 214.189 33.1C213.536 33.3667 212.836 33.5 212.089 33.5H209.609C208.863 33.5 208.163 33.3667 207.509 33.1C206.856 32.8333 206.283 32.4733 205.789 32.02C205.296 31.5667 204.909 31.04 204.629 30.44C204.349 29.8267 204.209 29.1733 204.209 28.48C204.209 27.7867 204.349 27.1333 204.629 26.52C204.909 25.9067 205.296 25.3733 205.789 24.92C206.283 24.4667 206.856 24.1067 207.509 23.84C208.163 23.5733 208.863 23.44 209.609 23.44H212.089ZM212.089 30.28C212.663 30.28 213.149 30.1067 213.549 29.76C213.949 29.4133 214.149 28.9867 214.149 28.48C214.149 28.2267 214.096 27.9933 213.989 27.78C213.883 27.5533 213.736 27.36 213.549 27.2C213.363 27.0267 213.143 26.8933 212.889 26.8C212.636 26.7067 212.369 26.66 212.089 26.66H209.609C209.329 26.66 209.063 26.7067 208.809 26.8C208.556 26.8933 208.336 27.0267 208.149 27.2C207.963 27.36 207.816 27.5533 207.709 27.78C207.603 27.9933 207.549 28.2267 207.549 28.48C207.549 28.9867 207.749 29.4133 208.149 29.76C208.549 30.1067 209.036 30.28 209.609 30.28H212.089ZM231.242 23.44V26.66H225.442C224.988 26.66 224.562 26.74 224.162 26.9C223.762 27.0467 223.408 27.2533 223.102 27.52C222.808 27.7867 222.575 28.1 222.402 28.46C222.228 28.82 222.142 29.2 222.142 29.6V33.5H218.802V29.6C218.802 28.7467 218.975 27.9467 219.322 27.2C219.668 26.4533 220.142 25.8 220.742 25.24C221.342 24.68 222.042 24.24 222.842 23.92C223.655 23.6 224.522 23.44 225.442 23.44H231.242Z" fill="#E53935"/>
<path d="M246.135 34.8039C250.468 34.8039 253.982 31.2906 253.982 26.9568C253.982 22.6229 250.468 19.1096 246.135 19.1096C241.801 19.1096 238.287 22.6229 238.287 26.9568C238.287 31.2906 241.801 34.8039 246.135 34.8039Z" stroke="#E53935" stroke-width="2" stroke-linecap="round" stroke-linejoin="round"/>
<path d="M243.388 26.9568H248.096" stroke="#E53935" stroke-width="2" stroke-linecap="round" stroke-linejoin="round"/>
<path d="M246.527 29.3106L248.881 26.9564L246.527 24.6023" stroke="#E53935" stroke-width="1.7" stroke-linecap="round" stroke-linejoin="round"/>
</svg>
